# xmcd CD database file
#
# Track frame offsets:
#	150
#	13050
#	24735
#	38028
#	50188
#	61406
#	77321
#	95022
#	108072
#	122963
#	132757
#	149807
#	160425
#	178202
#	197167
#	213164
#	229322
#	241309
#	256720
#	273480
#
# Disc length: 3919 seconds
#
# Revision: 0
# Processed by: cddbd v1.5.2PL0 Copyright (c) Steve Scherf et al.
# Submitted via: CDex 1.51
#
DISCID=240f4d14
DTITLE=ruzni - 100 nej country 5
DYEAR=2002
DGENRE=Country
TTITLE0=Tahnu se jak testo strudlu
TTITLE1=Chodim jen tak bosy
TTITLE2=Kruta valka
TTITLE3=Michaluv song
TTITLE4=Maryland
TTITLE5=Rakosi
TTITLE6=Cekam az se rozedni
TTITLE7=Snidane v trave
TTITLE8=Krajem ja sel
TTITLE9=Jesse James
TTITLE10=Abych tu zil
TTITLE11=Nelly Bly
TTITLE12=Jednou te najdu
TTITLE13=Jak chcete zit bez koni
TTITLE14=Posledni verejne obeseni..
TTITLE15=Svitani
TTITLE16=Rad se brouzdam rosou
TTITLE17=Zaba
TTITLE18=Usta do podkovy
TTITLE19=Dej silu nam
EXTD=YEAR: 2002
EXTT0=
EXTT1=
EXTT2=
EXTT3=
EXTT4=
EXTT5=
EXTT6=
EXTT7=
EXTT8=
EXTT9=
EXTT10=
EXTT11=
EXTT12=
EXTT13=
EXTT14=
EXTT15=
EXTT16=
EXTT17=
EXTT18=
EXTT19=
PLAYORDER=
